<svg width="182" height="186" viewBox="0 0 182 186" fill="none" xmlns="http://www.w3.org/2000/svg">
<path d="M20.6914 106.404L65.0127 124.317V138.194L7.09766 111.36V101.023L65.0127 74.2607V88.1377L20.6914 106.404ZM83.2085 68.7383C83.2085 62.555 85.1673 57.4574 89.085 53.4453C93.0498 49.4333 98.1239 47.4272 104.307 47.4272C110.585 47.4272 115.659 49.4569 119.529 53.5161C123.447 57.5282 125.406 62.7438 125.406 69.1631V74.1899C125.406 80.4204 123.423 85.5181 119.458 89.4829C115.541 93.4006 110.538 95.3594 104.449 95.3594C98.3127 95.3594 93.2386 93.4006 89.2266 89.4829C85.2145 85.5181 83.2085 80.2552 83.2085 73.6943V68.7383ZM92.979 74.1899C92.979 77.8716 94.0174 80.916 96.0942 83.3232C98.1711 85.6833 100.956 86.8633 104.449 86.8633C107.8 86.8633 110.49 85.7069 112.52 83.394C114.597 81.0812 115.635 77.9188 115.635 73.9067V68.7383C115.635 65.0566 114.62 62.0122 112.591 59.605C110.561 57.1978 107.8 55.9941 104.307 55.9941C100.814 55.9941 98.0531 57.1978 96.0234 59.605C93.9938 62.0122 92.979 65.151 92.979 69.0215V74.1899ZM133.406 126.724C133.406 120.541 135.365 115.467 139.283 111.502C143.248 107.49 148.322 105.484 154.505 105.484C160.688 105.484 165.762 107.466 169.727 111.431C173.692 115.396 175.674 120.659 175.674 127.22V132.247C175.674 138.43 173.692 143.528 169.727 147.54C165.809 151.504 160.783 153.487 154.646 153.487C148.51 153.487 143.436 151.528 139.424 147.61C135.412 143.646 133.406 138.383 133.406 131.822V126.724ZM143.177 132.247C143.177 135.975 144.215 139.043 146.292 141.451C148.369 143.811 151.154 144.991 154.646 144.991C158.045 144.991 160.759 143.834 162.789 141.521C164.818 139.161 165.833 135.975 165.833 131.963V126.724C165.833 122.995 164.795 119.951 162.718 117.591C160.688 115.231 157.951 114.051 154.505 114.051C151.154 114.051 148.416 115.231 146.292 117.591C144.215 119.904 143.177 123.042 143.177 127.007V132.247ZM107.422 144.212L99.9883 139.539L150.328 58.9678L157.762 63.6406L107.422 144.212Z" fill="white"/>
</svg>
