<svg width="279" height="338" viewBox="0 0 279 338" fill="none" xmlns="http://www.w3.org/2000/svg">
<rect width="48" height="140" transform="translate(149)" fill="url(#paint0_linear)"/>
<rect width="48" height="140" transform="translate(149 153)" fill="url(#paint1_linear)"/>
<rect width="48" height="140" transform="translate(82)" fill="url(#paint2_linear)"/>
<path d="M231 0H249C265.569 0 279 13.4315 279 30V110C279 126.569 265.569 140 249 140H231V0Z" fill="url(#paint3_linear)"/>
<path d="M0 183C0 166.431 13.4315 153 30 153H48V293H0V183Z" fill="url(#paint4_linear)"/>
<path d="M82 151C82 134.431 95.4315 121 112 121H130V293H82V151Z" fill="url(#paint5_linear)"/>
<path d="M30 338C13.4315 338 0 324.569 0 308L0 291L130 291V338L30 338Z" fill="url(#paint6_linear)"/>
<rect width="19" height="82" transform="translate(24 19) rotate(-90)" fill="url(#paint7_linear)"/>
<rect width="19" height="82" transform="translate(24 140) rotate(-90)" fill="url(#paint8_linear)"/>
<rect width="19" height="82" transform="translate(164 172) rotate(-90)" fill="url(#paint9_linear)"/>
<rect width="19" height="82" transform="translate(164 19) rotate(-90)" fill="url(#paint10_linear)"/>
<rect width="19" height="82" transform="translate(164 140) rotate(-90)" fill="url(#paint11_linear)"/>
<path d="M231 153H249C265.569 153 279 166.431 279 183V293H231V153Z" fill="url(#paint12_linear)"/>
<path d="M231 338H249C265.569 338 279 324.569 279 308V198H231V338Z" fill="url(#paint13_linear)"/>
<path d="M0 30C0 13.4315 13.4315 0 30 0H48V140H30C13.4315 140 0 126.569 0 110V30Z" fill="url(#paint14_linear)"/>
<defs>
<linearGradient id="paint0_linear" x1="24" y1="0" x2="24" y2="140" gradientUnits="userSpaceOnUse">
<stop stop-color="white"/>
<stop offset="0.9999" stop-color="white" stop-opacity="0.984375"/>
<stop offset="1" stop-color="white" stop-opacity="0"/>
</linearGradient>
<linearGradient id="paint1_linear" x1="24" y1="0" x2="24" y2="140" gradientUnits="userSpaceOnUse">
<stop stop-color="white"/>
<stop offset="0.9999" stop-color="white" stop-opacity="0.984375"/>
<stop offset="1" stop-color="white" stop-opacity="0"/>
</linearGradient>
<linearGradient id="paint2_linear" x1="24" y1="0" x2="24" y2="140" gradientUnits="userSpaceOnUse">
<stop stop-color="white"/>
<stop offset="0.9999" stop-color="white" stop-opacity="0.984375"/>
<stop offset="1" stop-color="white" stop-opacity="0"/>
</linearGradient>
<linearGradient id="paint3_linear" x1="255" y1="0" x2="255" y2="140" gradientUnits="userSpaceOnUse">
<stop stop-color="white"/>
<stop offset="0.9999" stop-color="white" stop-opacity="0.984375"/>
<stop offset="1" stop-color="white" stop-opacity="0"/>
</linearGradient>
<linearGradient id="paint4_linear" x1="24" y1="153" x2="24" y2="293" gradientUnits="userSpaceOnUse">
<stop stop-color="white"/>
<stop offset="0.9999" stop-color="white" stop-opacity="0.984375"/>
<stop offset="1" stop-color="white" stop-opacity="0"/>
</linearGradient>
<linearGradient id="paint5_linear" x1="106" y1="121" x2="106" y2="293" gradientUnits="userSpaceOnUse">
<stop stop-color="white"/>
<stop offset="0.9999" stop-color="white" stop-opacity="0.984375"/>
<stop offset="1" stop-color="white" stop-opacity="0"/>
</linearGradient>
<linearGradient id="paint6_linear" x1="0" y1="314.5" x2="130" y2="314.5" gradientUnits="userSpaceOnUse">
<stop stop-color="white"/>
<stop offset="0.9999" stop-color="white" stop-opacity="0.984375"/>
<stop offset="1" stop-color="white" stop-opacity="0"/>
</linearGradient>
<linearGradient id="paint7_linear" x1="9.5" y1="0" x2="9.5" y2="82" gradientUnits="userSpaceOnUse">
<stop stop-color="white"/>
<stop offset="0.9999" stop-color="white" stop-opacity="0.984375"/>
<stop offset="1" stop-color="white" stop-opacity="0"/>
</linearGradient>
<linearGradient id="paint8_linear" x1="9.5" y1="0" x2="9.5" y2="82" gradientUnits="userSpaceOnUse">
<stop stop-color="white"/>
<stop offset="0.9999" stop-color="white" stop-opacity="0.984375"/>
<stop offset="1" stop-color="white" stop-opacity="0"/>
</linearGradient>
<linearGradient id="paint9_linear" x1="9.5" y1="0" x2="9.5" y2="82" gradientUnits="userSpaceOnUse">
<stop stop-color="white"/>
<stop offset="0.9999" stop-color="white" stop-opacity="0.984375"/>
<stop offset="1" stop-color="white" stop-opacity="0"/>
</linearGradient>
<linearGradient id="paint10_linear" x1="9.5" y1="0" x2="9.5" y2="82" gradientUnits="userSpaceOnUse">
<stop stop-color="white"/>
<stop offset="0.9999" stop-color="white" stop-opacity="0.984375"/>
<stop offset="1" stop-color="white" stop-opacity="0"/>
</linearGradient>
<linearGradient id="paint11_linear" x1="9.5" y1="0" x2="9.5" y2="82" gradientUnits="userSpaceOnUse">
<stop stop-color="white"/>
<stop offset="0.9999" stop-color="white" stop-opacity="0.984375"/>
<stop offset="1" stop-color="white" stop-opacity="0"/>
</linearGradient>
<linearGradient id="paint12_linear" x1="255" y1="153" x2="255" y2="293" gradientUnits="userSpaceOnUse">
<stop stop-color="white"/>
<stop offset="0.9999" stop-color="white" stop-opacity="0.984375"/>
<stop offset="1" stop-color="white" stop-opacity="0"/>
</linearGradient>
<linearGradient id="paint13_linear" x1="255" y1="338" x2="255" y2="198" gradientUnits="userSpaceOnUse">
<stop stop-color="white"/>
<stop offset="0.9999" stop-color="white" stop-opacity="0.984375"/>
<stop offset="1" stop-color="white" stop-opacity="0"/>
</linearGradient>
<linearGradient id="paint14_linear" x1="24" y1="0" x2="24" y2="140" gradientUnits="userSpaceOnUse">
<stop stop-color="white"/>
<stop offset="0.9999" stop-color="white" stop-opacity="0.984375"/>
<stop offset="1" stop-color="white" stop-opacity="0"/>
</linearGradient>
</defs>
</svg>
