<svg width="287" height="346" viewBox="0 0 287 346" fill="none" xmlns="http://www.w3.org/2000/svg">
<g filter="url(#filter0_d)">
<path d="M4 30C4 13.4315 17.4315 0 34 0H52V140H34C17.4315 140 4 126.569 4 110V30Z" fill="url(#paint0_linear)"/>
<rect width="48" height="140" transform="translate(153)" fill="url(#paint1_linear)"/>
<rect width="48" height="140" transform="translate(153 153)" fill="url(#paint2_linear)"/>
<rect width="48" height="140" transform="translate(86)" fill="url(#paint3_linear)"/>
<path d="M235 0H253C269.569 0 283 13.4315 283 30V110C283 126.569 269.569 140 253 140H235V0Z" fill="url(#paint4_linear)"/>
<path d="M4 183C4 166.431 17.4315 153 34 153H52V293H4V183Z" fill="url(#paint5_linear)"/>
<path d="M86 151C86 134.431 99.4315 121 116 121H134V293H86V151Z" fill="url(#paint6_linear)"/>
<path d="M34 338C17.4315 338 4 324.569 4 308L4 291L134 291V338L34 338Z" fill="url(#paint7_linear)"/>
<rect width="19" height="82" transform="translate(28 19) rotate(-90)" fill="url(#paint8_linear)"/>
<rect width="19" height="82" transform="translate(28 140) rotate(-90)" fill="url(#paint9_linear)"/>
<rect width="19" height="82" transform="translate(168 172) rotate(-90)" fill="url(#paint10_linear)"/>
<rect width="19" height="82" transform="translate(168 19) rotate(-90)" fill="url(#paint11_linear)"/>
<rect width="19" height="82" transform="translate(168 140) rotate(-90)" fill="url(#paint12_linear)"/>
<path d="M235 153H253C269.569 153 283 166.431 283 183V293H235V153Z" fill="url(#paint13_linear)"/>
<path d="M235 338H253C269.569 338 283 324.569 283 308V198H235V338Z" fill="url(#paint14_linear)"/>
</g>
<defs>
<filter id="filter0_d" x="0" y="0" width="287" height="346" filterUnits="userSpaceOnUse" color-interpolation-filters="sRGB">
<feFlood flood-opacity="0" result="BackgroundImageFix"/>
<feColorMatrix in="SourceAlpha" type="matrix" values="0 0 0 0 0 0 0 0 0 0 0 0 0 0 0 0 0 0 127 0"/>
<feOffset dy="4"/>
<feGaussianBlur stdDeviation="2"/>
<feColorMatrix type="matrix" values="0 0 0 0 0 0 0 0 0 0 0 0 0 0 0 0 0 0 0.25 0"/>
<feBlend mode="normal" in2="BackgroundImageFix" result="effect1_dropShadow"/>
<feBlend mode="normal" in="SourceGraphic" in2="effect1_dropShadow" result="shape"/>
</filter>
<linearGradient id="paint0_linear" x1="28" y1="0" x2="28" y2="140" gradientUnits="userSpaceOnUse">
<stop stop-color="white"/>
<stop offset="0.9999" stop-color="white" stop-opacity="0.984375"/>
<stop offset="1" stop-color="white" stop-opacity="0"/>
</linearGradient>
<linearGradient id="paint1_linear" x1="24" y1="0" x2="24" y2="140" gradientUnits="userSpaceOnUse">
<stop stop-color="white"/>
<stop offset="0.9999" stop-color="white" stop-opacity="0.984375"/>
<stop offset="1" stop-color="white" stop-opacity="0"/>
</linearGradient>
<linearGradient id="paint2_linear" x1="24" y1="0" x2="24" y2="140" gradientUnits="userSpaceOnUse">
<stop stop-color="white"/>
<stop offset="0.9999" stop-color="white" stop-opacity="0.984375"/>
<stop offset="1" stop-color="white" stop-opacity="0"/>
</linearGradient>
<linearGradient id="paint3_linear" x1="24" y1="0" x2="24" y2="140" gradientUnits="userSpaceOnUse">
<stop stop-color="white"/>
<stop offset="0.9999" stop-color="white" stop-opacity="0.984375"/>
<stop offset="1" stop-color="white" stop-opacity="0"/>
</linearGradient>
<linearGradient id="paint4_linear" x1="259" y1="0" x2="259" y2="140" gradientUnits="userSpaceOnUse">
<stop stop-color="white"/>
<stop offset="0.9999" stop-color="white" stop-opacity="0.984375"/>
<stop offset="1" stop-color="white" stop-opacity="0"/>
</linearGradient>
<linearGradient id="paint5_linear" x1="28" y1="153" x2="28" y2="293" gradientUnits="userSpaceOnUse">
<stop stop-color="white"/>
<stop offset="0.9999" stop-color="white" stop-opacity="0.984375"/>
<stop offset="1" stop-color="white" stop-opacity="0"/>
</linearGradient>
<linearGradient id="paint6_linear" x1="110" y1="121" x2="110" y2="293" gradientUnits="userSpaceOnUse">
<stop stop-color="white"/>
<stop offset="0.9999" stop-color="white" stop-opacity="0.984375"/>
<stop offset="1" stop-color="white" stop-opacity="0"/>
</linearGradient>
<linearGradient id="paint7_linear" x1="4" y1="314.5" x2="134" y2="314.5" gradientUnits="userSpaceOnUse">
<stop stop-color="white"/>
<stop offset="0.9999" stop-color="white" stop-opacity="0.984375"/>
<stop offset="1" stop-color="white" stop-opacity="0"/>
</linearGradient>
<linearGradient id="paint8_linear" x1="9.5" y1="0" x2="9.5" y2="82" gradientUnits="userSpaceOnUse">
<stop stop-color="white"/>
<stop offset="0.9999" stop-color="white" stop-opacity="0.984375"/>
<stop offset="1" stop-color="white" stop-opacity="0"/>
</linearGradient>
<linearGradient id="paint9_linear" x1="9.5" y1="0" x2="9.5" y2="82" gradientUnits="userSpaceOnUse">
<stop stop-color="white"/>
<stop offset="0.9999" stop-color="white" stop-opacity="0.984375"/>
<stop offset="1" stop-color="white" stop-opacity="0"/>
</linearGradient>
<linearGradient id="paint10_linear" x1="9.5" y1="0" x2="9.5" y2="82" gradientUnits="userSpaceOnUse">
<stop stop-color="white"/>
<stop offset="0.9999" stop-color="white" stop-opacity="0.984375"/>
<stop offset="1" stop-color="white" stop-opacity="0"/>
</linearGradient>
<linearGradient id="paint11_linear" x1="9.5" y1="0" x2="9.5" y2="82" gradientUnits="userSpaceOnUse">
<stop stop-color="white"/>
<stop offset="0.9999" stop-color="white" stop-opacity="0.984375"/>
<stop offset="1" stop-color="white" stop-opacity="0"/>
</linearGradient>
<linearGradient id="paint12_linear" x1="9.5" y1="0" x2="9.5" y2="82" gradientUnits="userSpaceOnUse">
<stop stop-color="white"/>
<stop offset="0.9999" stop-color="white" stop-opacity="0.984375"/>
<stop offset="1" stop-color="white" stop-opacity="0"/>
</linearGradient>
<linearGradient id="paint13_linear" x1="259" y1="153" x2="259" y2="293" gradientUnits="userSpaceOnUse">
<stop stop-color="white"/>
<stop offset="0.9999" stop-color="white" stop-opacity="0.984375"/>
<stop offset="1" stop-color="white" stop-opacity="0"/>
</linearGradient>
<linearGradient id="paint14_linear" x1="259" y1="338" x2="259" y2="198" gradientUnits="userSpaceOnUse">
<stop stop-color="white"/>
<stop offset="0.9999" stop-color="white" stop-opacity="0.984375"/>
<stop offset="1" stop-color="white" stop-opacity="0"/>
</linearGradient>
</defs>
</svg>
