<svg width="625" height="608" viewBox="0 0 625 608" fill="none" xmlns="http://www.w3.org/2000/svg">
<rect width="625" height="608" rx="304" fill="url(#paint0_linear)"/>
<g filter="url(#filter0_d)">
<path d="M173 180C173 163.431 186.431 150 203 150H221V290H203C186.431 290 173 276.569 173 260V180Z" fill="url(#paint1_linear)"/>
<rect width="48" height="140" transform="translate(322 150)" fill="url(#paint2_linear)"/>
<rect width="48" height="140" transform="translate(322 303)" fill="url(#paint3_linear)"/>
<rect width="48" height="140" transform="translate(255 150)" fill="url(#paint4_linear)"/>
<path d="M404 150H422C438.569 150 452 163.431 452 180V260C452 276.569 438.569 290 422 290H404V150Z" fill="url(#paint5_linear)"/>
<path d="M173 333C173 316.431 186.431 303 203 303H221V443H173V333Z" fill="url(#paint6_linear)"/>
<path d="M255 301C255 284.431 268.431 271 285 271H303V443H255V301Z" fill="url(#paint7_linear)"/>
<path d="M203 488C186.431 488 173 474.569 173 458V441L303 441V488L203 488Z" fill="url(#paint8_linear)"/>
<rect width="19" height="82" transform="translate(197 169) rotate(-90)" fill="url(#paint9_linear)"/>
<rect width="19" height="82" transform="translate(197 290) rotate(-90)" fill="url(#paint10_linear)"/>
<rect width="19" height="82" transform="translate(337 322) rotate(-90)" fill="url(#paint11_linear)"/>
<rect width="19" height="82" transform="translate(337 169) rotate(-90)" fill="url(#paint12_linear)"/>
<rect width="19" height="82" transform="translate(337 290) rotate(-90)" fill="url(#paint13_linear)"/>
<path d="M404 303H422C438.569 303 452 316.431 452 333V443H404V303Z" fill="url(#paint14_linear)"/>
<path d="M404 488H422C438.569 488 452 474.569 452 458V348H404V488Z" fill="url(#paint15_linear)"/>
</g>
<defs>
<filter id="filter0_d" x="169" y="150" width="287" height="346" filterUnits="userSpaceOnUse" color-interpolation-filters="sRGB">
<feFlood flood-opacity="0" result="BackgroundImageFix"/>
<feColorMatrix in="SourceAlpha" type="matrix" values="0 0 0 0 0 0 0 0 0 0 0 0 0 0 0 0 0 0 127 0"/>
<feOffset dy="4"/>
<feGaussianBlur stdDeviation="2"/>
<feColorMatrix type="matrix" values="0 0 0 0 0 0 0 0 0 0 0 0 0 0 0 0 0 0 0.25 0"/>
<feBlend mode="normal" in2="BackgroundImageFix" result="effect1_dropShadow"/>
<feBlend mode="normal" in="SourceGraphic" in2="effect1_dropShadow" result="shape"/>
</filter>
<linearGradient id="paint0_linear" x1="-200.391" y1="304" x2="624.973" y2="283.522" gradientUnits="userSpaceOnUse">
<stop stop-color="#F88686" stop-opacity="0"/>
<stop offset="0.0001" stop-color="#890000"/>
<stop offset="0.9999" stop-color="#FF4343"/>
</linearGradient>
<linearGradient id="paint1_linear" x1="197" y1="150" x2="197" y2="290" gradientUnits="userSpaceOnUse">
<stop stop-color="white"/>
<stop offset="0.9999" stop-color="white" stop-opacity="0.984375"/>
<stop offset="1" stop-color="white" stop-opacity="0"/>
</linearGradient>
<linearGradient id="paint2_linear" x1="24" y1="0" x2="24" y2="140" gradientUnits="userSpaceOnUse">
<stop stop-color="white"/>
<stop offset="0.9999" stop-color="white" stop-opacity="0.984375"/>
<stop offset="1" stop-color="white" stop-opacity="0"/>
</linearGradient>
<linearGradient id="paint3_linear" x1="24" y1="0" x2="24" y2="140" gradientUnits="userSpaceOnUse">
<stop stop-color="white"/>
<stop offset="0.9999" stop-color="white" stop-opacity="0.984375"/>
<stop offset="1" stop-color="white" stop-opacity="0"/>
</linearGradient>
<linearGradient id="paint4_linear" x1="24" y1="0" x2="24" y2="140" gradientUnits="userSpaceOnUse">
<stop stop-color="white"/>
<stop offset="0.9999" stop-color="white" stop-opacity="0.984375"/>
<stop offset="1" stop-color="white" stop-opacity="0"/>
</linearGradient>
<linearGradient id="paint5_linear" x1="428" y1="150" x2="428" y2="290" gradientUnits="userSpaceOnUse">
<stop stop-color="white"/>
<stop offset="0.9999" stop-color="white" stop-opacity="0.984375"/>
<stop offset="1" stop-color="white" stop-opacity="0"/>
</linearGradient>
<linearGradient id="paint6_linear" x1="197" y1="303" x2="197" y2="443" gradientUnits="userSpaceOnUse">
<stop stop-color="white"/>
<stop offset="0.9999" stop-color="white" stop-opacity="0.984375"/>
<stop offset="1" stop-color="white" stop-opacity="0"/>
</linearGradient>
<linearGradient id="paint7_linear" x1="279" y1="271" x2="279" y2="443" gradientUnits="userSpaceOnUse">
<stop stop-color="white"/>
<stop offset="0.9999" stop-color="white" stop-opacity="0.984375"/>
<stop offset="1" stop-color="white" stop-opacity="0"/>
</linearGradient>
<linearGradient id="paint8_linear" x1="173" y1="464.5" x2="303" y2="464.5" gradientUnits="userSpaceOnUse">
<stop stop-color="white"/>
<stop offset="0.9999" stop-color="white" stop-opacity="0.984375"/>
<stop offset="1" stop-color="white" stop-opacity="0"/>
</linearGradient>
<linearGradient id="paint9_linear" x1="9.5" y1="0" x2="9.5" y2="82" gradientUnits="userSpaceOnUse">
<stop stop-color="white"/>
<stop offset="0.9999" stop-color="white" stop-opacity="0.984375"/>
<stop offset="1" stop-color="white" stop-opacity="0"/>
</linearGradient>
<linearGradient id="paint10_linear" x1="9.5" y1="0" x2="9.5" y2="82" gradientUnits="userSpaceOnUse">
<stop stop-color="white"/>
<stop offset="0.9999" stop-color="white" stop-opacity="0.984375"/>
<stop offset="1" stop-color="white" stop-opacity="0"/>
</linearGradient>
<linearGradient id="paint11_linear" x1="9.5" y1="0" x2="9.5" y2="82" gradientUnits="userSpaceOnUse">
<stop stop-color="white"/>
<stop offset="0.9999" stop-color="white" stop-opacity="0.984375"/>
<stop offset="1" stop-color="white" stop-opacity="0"/>
</linearGradient>
<linearGradient id="paint12_linear" x1="9.5" y1="0" x2="9.5" y2="82" gradientUnits="userSpaceOnUse">
<stop stop-color="white"/>
<stop offset="0.9999" stop-color="white" stop-opacity="0.984375"/>
<stop offset="1" stop-color="white" stop-opacity="0"/>
</linearGradient>
<linearGradient id="paint13_linear" x1="9.5" y1="0" x2="9.5" y2="82" gradientUnits="userSpaceOnUse">
<stop stop-color="white"/>
<stop offset="0.9999" stop-color="white" stop-opacity="0.984375"/>
<stop offset="1" stop-color="white" stop-opacity="0"/>
</linearGradient>
<linearGradient id="paint14_linear" x1="428" y1="303" x2="428" y2="443" gradientUnits="userSpaceOnUse">
<stop stop-color="white"/>
<stop offset="0.9999" stop-color="white" stop-opacity="0.984375"/>
<stop offset="1" stop-color="white" stop-opacity="0"/>
</linearGradient>
<linearGradient id="paint15_linear" x1="428" y1="488" x2="428" y2="348" gradientUnits="userSpaceOnUse">
<stop stop-color="white"/>
<stop offset="0.9999" stop-color="white" stop-opacity="0.984375"/>
<stop offset="1" stop-color="white" stop-opacity="0"/>
</linearGradient>
</defs>
</svg>
