<svg width="625" height="608" viewBox="0 0 625 608" fill="none" xmlns="http://www.w3.org/2000/svg">
<rect width="625" height="608" rx="304" fill="url(#paint0_linear)"/>
<rect width="48" height="140" transform="translate(322 135)" fill="url(#paint1_linear)"/>
<rect width="48" height="140" transform="translate(322 288)" fill="url(#paint2_linear)"/>
<rect width="48" height="140" transform="translate(255 135)" fill="url(#paint3_linear)"/>
<path d="M404 135H422C438.569 135 452 148.431 452 165V245C452 261.569 438.569 275 422 275H404V135Z" fill="url(#paint4_linear)"/>
<path d="M173 318C173 301.431 186.431 288 203 288H221V428H173V318Z" fill="url(#paint5_linear)"/>
<path d="M255 286C255 269.431 268.431 256 285 256H303V428H255V286Z" fill="url(#paint6_linear)"/>
<path d="M203 473C186.431 473 173 459.569 173 443V426L303 426V473L203 473Z" fill="url(#paint7_linear)"/>
<rect width="19" height="82" transform="translate(197 154) rotate(-90)" fill="url(#paint8_linear)"/>
<rect width="19" height="82" transform="translate(197 275) rotate(-90)" fill="url(#paint9_linear)"/>
<rect width="19" height="82" transform="translate(337 307) rotate(-90)" fill="url(#paint10_linear)"/>
<rect width="19" height="82" transform="translate(337 154) rotate(-90)" fill="url(#paint11_linear)"/>
<rect width="19" height="82" transform="translate(337 275) rotate(-90)" fill="url(#paint12_linear)"/>
<path d="M404 288H422C438.569 288 452 301.431 452 318V428H404V288Z" fill="url(#paint13_linear)"/>
<path d="M404 473H422C438.569 473 452 459.569 452 443V333H404V473Z" fill="url(#paint14_linear)"/>
<path d="M173 165C173 148.431 186.431 135 203 135H221V275H203C186.431 275 173 261.569 173 245V165Z" fill="url(#paint15_linear)"/>
<defs>
<linearGradient id="paint0_linear" x1="-200.391" y1="304" x2="624.973" y2="283.522" gradientUnits="userSpaceOnUse">
<stop offset="0.0001" stop-color="#890000"/>
<stop offset="0.9999" stop-color="#302B63"/>
</linearGradient>
<linearGradient id="paint1_linear" x1="24" y1="0" x2="24" y2="140" gradientUnits="userSpaceOnUse">
<stop stop-color="white"/>
<stop offset="0.9999" stop-color="white" stop-opacity="0.984375"/>
<stop offset="1" stop-color="white" stop-opacity="0"/>
</linearGradient>
<linearGradient id="paint2_linear" x1="24" y1="0" x2="24" y2="140" gradientUnits="userSpaceOnUse">
<stop stop-color="white"/>
<stop offset="0.9999" stop-color="white" stop-opacity="0.984375"/>
<stop offset="1" stop-color="white" stop-opacity="0"/>
</linearGradient>
<linearGradient id="paint3_linear" x1="24" y1="0" x2="24" y2="140" gradientUnits="userSpaceOnUse">
<stop stop-color="white"/>
<stop offset="0.9999" stop-color="white" stop-opacity="0.984375"/>
<stop offset="1" stop-color="white" stop-opacity="0"/>
</linearGradient>
<linearGradient id="paint4_linear" x1="428" y1="135" x2="428" y2="275" gradientUnits="userSpaceOnUse">
<stop stop-color="white"/>
<stop offset="0.9999" stop-color="white" stop-opacity="0.984375"/>
<stop offset="1" stop-color="white" stop-opacity="0"/>
</linearGradient>
<linearGradient id="paint5_linear" x1="197" y1="288" x2="197" y2="428" gradientUnits="userSpaceOnUse">
<stop stop-color="white"/>
<stop offset="0.9999" stop-color="white" stop-opacity="0.984375"/>
<stop offset="1" stop-color="white" stop-opacity="0"/>
</linearGradient>
<linearGradient id="paint6_linear" x1="279" y1="256" x2="279" y2="428" gradientUnits="userSpaceOnUse">
<stop stop-color="white"/>
<stop offset="0.9999" stop-color="white" stop-opacity="0.984375"/>
<stop offset="1" stop-color="white" stop-opacity="0"/>
</linearGradient>
<linearGradient id="paint7_linear" x1="173" y1="449.5" x2="303" y2="449.5" gradientUnits="userSpaceOnUse">
<stop stop-color="white"/>
<stop offset="0.9999" stop-color="white" stop-opacity="0.984375"/>
<stop offset="1" stop-color="white" stop-opacity="0"/>
</linearGradient>
<linearGradient id="paint8_linear" x1="9.5" y1="0" x2="9.5" y2="82" gradientUnits="userSpaceOnUse">
<stop stop-color="white"/>
<stop offset="0.9999" stop-color="white" stop-opacity="0.984375"/>
<stop offset="1" stop-color="white" stop-opacity="0"/>
</linearGradient>
<linearGradient id="paint9_linear" x1="9.5" y1="0" x2="9.5" y2="82" gradientUnits="userSpaceOnUse">
<stop stop-color="white"/>
<stop offset="0.9999" stop-color="white" stop-opacity="0.984375"/>
<stop offset="1" stop-color="white" stop-opacity="0"/>
</linearGradient>
<linearGradient id="paint10_linear" x1="9.5" y1="0" x2="9.5" y2="82" gradientUnits="userSpaceOnUse">
<stop stop-color="white"/>
<stop offset="0.9999" stop-color="white" stop-opacity="0.984375"/>
<stop offset="1" stop-color="white" stop-opacity="0"/>
</linearGradient>
<linearGradient id="paint11_linear" x1="9.5" y1="0" x2="9.5" y2="82" gradientUnits="userSpaceOnUse">
<stop stop-color="white"/>
<stop offset="0.9999" stop-color="white" stop-opacity="0.984375"/>
<stop offset="1" stop-color="white" stop-opacity="0"/>
</linearGradient>
<linearGradient id="paint12_linear" x1="9.5" y1="0" x2="9.5" y2="82" gradientUnits="userSpaceOnUse">
<stop stop-color="white"/>
<stop offset="0.9999" stop-color="white" stop-opacity="0.984375"/>
<stop offset="1" stop-color="white" stop-opacity="0"/>
</linearGradient>
<linearGradient id="paint13_linear" x1="428" y1="288" x2="428" y2="428" gradientUnits="userSpaceOnUse">
<stop stop-color="white"/>
<stop offset="0.9999" stop-color="white" stop-opacity="0.984375"/>
<stop offset="1" stop-color="white" stop-opacity="0"/>
</linearGradient>
<linearGradient id="paint14_linear" x1="428" y1="473" x2="428" y2="333" gradientUnits="userSpaceOnUse">
<stop stop-color="white"/>
<stop offset="0.9999" stop-color="white" stop-opacity="0.984375"/>
<stop offset="1" stop-color="white" stop-opacity="0"/>
</linearGradient>
<linearGradient id="paint15_linear" x1="197" y1="135" x2="197" y2="275" gradientUnits="userSpaceOnUse">
<stop stop-color="white"/>
<stop offset="0.9999" stop-color="white" stop-opacity="0.984375"/>
<stop offset="1" stop-color="white" stop-opacity="0"/>
</linearGradient>
</defs>
</svg>
