<svg width="1456" height="840" viewBox="0 0 1456 840" fill="none" xmlns="http://www.w3.org/2000/svg">
<rect width="1456" height="840" rx="82" fill="url(#paint0_radial)"/>
<rect x="416" y="116" width="625" height="608" rx="304" fill="url(#paint1_linear)"/>
<rect width="48" height="140" transform="translate(738 251)" fill="url(#paint2_linear)"/>
<rect width="48" height="140" transform="translate(738 404)" fill="url(#paint3_linear)"/>
<rect width="48" height="140" transform="translate(671 251)" fill="url(#paint4_linear)"/>
<path d="M820 251H838C854.569 251 868 264.431 868 281V361C868 377.569 854.569 391 838 391H820V251Z" fill="url(#paint5_linear)"/>
<path d="M589 434C589 417.431 602.431 404 619 404H637V544H589V434Z" fill="url(#paint6_linear)"/>
<path d="M671 402C671 385.431 684.431 372 701 372H719V544H671V402Z" fill="url(#paint7_linear)"/>
<path d="M619 589C602.431 589 589 575.569 589 559V542H719V589H619Z" fill="url(#paint8_linear)"/>
<rect width="19" height="82" transform="translate(613 270) rotate(-90)" fill="url(#paint9_linear)"/>
<rect width="19" height="82" transform="translate(613 391) rotate(-90)" fill="url(#paint10_linear)"/>
<rect width="19" height="82" transform="translate(753 423) rotate(-90)" fill="url(#paint11_linear)"/>
<rect width="19" height="82" transform="translate(753 270) rotate(-90)" fill="url(#paint12_linear)"/>
<rect width="19" height="82" transform="translate(753 391) rotate(-90)" fill="url(#paint13_linear)"/>
<path d="M820 404H838C854.569 404 868 417.431 868 434V544H820V404Z" fill="url(#paint14_linear)"/>
<path d="M820 589H838C854.569 589 868 575.569 868 559V449H820V589Z" fill="url(#paint15_linear)"/>
<path d="M589 281C589 264.431 602.431 251 619 251H637V391H619C602.431 391 589 377.569 589 361V281Z" fill="url(#paint16_linear)"/>
<defs>
<radialGradient id="paint0_radial" cx="0" cy="0" r="1" gradientUnits="userSpaceOnUse" gradientTransform="translate(728 420) rotate(90) scale(420 728)">
<stop stop-color="#F5F5F5"/>
<stop offset="1" stop-color="#FFFDFD"/>
</radialGradient>
<linearGradient id="paint1_linear" x1="215.609" y1="420" x2="1040.97" y2="399.522" gradientUnits="userSpaceOnUse">
<stop offset="0.0001" stop-color="#890000"/>
<stop offset="0.9999" stop-color="#302B63"/>
</linearGradient>
<linearGradient id="paint2_linear" x1="24" y1="0" x2="24" y2="140" gradientUnits="userSpaceOnUse">
<stop stop-color="white"/>
<stop offset="0.9999" stop-color="white" stop-opacity="0.984375"/>
<stop offset="1" stop-color="white" stop-opacity="0"/>
</linearGradient>
<linearGradient id="paint3_linear" x1="24" y1="0" x2="24" y2="140" gradientUnits="userSpaceOnUse">
<stop stop-color="white"/>
<stop offset="0.9999" stop-color="white" stop-opacity="0.984375"/>
<stop offset="1" stop-color="white" stop-opacity="0"/>
</linearGradient>
<linearGradient id="paint4_linear" x1="24" y1="0" x2="24" y2="140" gradientUnits="userSpaceOnUse">
<stop stop-color="white"/>
<stop offset="0.9999" stop-color="white" stop-opacity="0.984375"/>
<stop offset="1" stop-color="white" stop-opacity="0"/>
</linearGradient>
<linearGradient id="paint5_linear" x1="844" y1="251" x2="844" y2="391" gradientUnits="userSpaceOnUse">
<stop stop-color="white"/>
<stop offset="0.9999" stop-color="white" stop-opacity="0.984375"/>
<stop offset="1" stop-color="white" stop-opacity="0"/>
</linearGradient>
<linearGradient id="paint6_linear" x1="613" y1="404" x2="613" y2="544" gradientUnits="userSpaceOnUse">
<stop stop-color="white"/>
<stop offset="0.9999" stop-color="white" stop-opacity="0.984375"/>
<stop offset="1" stop-color="white" stop-opacity="0"/>
</linearGradient>
<linearGradient id="paint7_linear" x1="695" y1="372" x2="695" y2="544" gradientUnits="userSpaceOnUse">
<stop stop-color="white"/>
<stop offset="0.9999" stop-color="white" stop-opacity="0.984375"/>
<stop offset="1" stop-color="white" stop-opacity="0"/>
</linearGradient>
<linearGradient id="paint8_linear" x1="589" y1="565.5" x2="719" y2="565.5" gradientUnits="userSpaceOnUse">
<stop stop-color="white"/>
<stop offset="0.9999" stop-color="white" stop-opacity="0.984375"/>
<stop offset="1" stop-color="white" stop-opacity="0"/>
</linearGradient>
<linearGradient id="paint9_linear" x1="9.5" y1="0" x2="9.5" y2="82" gradientUnits="userSpaceOnUse">
<stop stop-color="white"/>
<stop offset="0.9999" stop-color="white" stop-opacity="0.984375"/>
<stop offset="1" stop-color="white" stop-opacity="0"/>
</linearGradient>
<linearGradient id="paint10_linear" x1="9.5" y1="0" x2="9.5" y2="82" gradientUnits="userSpaceOnUse">
<stop stop-color="white"/>
<stop offset="0.9999" stop-color="white" stop-opacity="0.984375"/>
<stop offset="1" stop-color="white" stop-opacity="0"/>
</linearGradient>
<linearGradient id="paint11_linear" x1="9.5" y1="0" x2="9.5" y2="82" gradientUnits="userSpaceOnUse">
<stop stop-color="white"/>
<stop offset="0.9999" stop-color="white" stop-opacity="0.984375"/>
<stop offset="1" stop-color="white" stop-opacity="0"/>
</linearGradient>
<linearGradient id="paint12_linear" x1="9.5" y1="0" x2="9.5" y2="82" gradientUnits="userSpaceOnUse">
<stop stop-color="white"/>
<stop offset="0.9999" stop-color="white" stop-opacity="0.984375"/>
<stop offset="1" stop-color="white" stop-opacity="0"/>
</linearGradient>
<linearGradient id="paint13_linear" x1="9.5" y1="0" x2="9.5" y2="82" gradientUnits="userSpaceOnUse">
<stop stop-color="white"/>
<stop offset="0.9999" stop-color="white" stop-opacity="0.984375"/>
<stop offset="1" stop-color="white" stop-opacity="0"/>
</linearGradient>
<linearGradient id="paint14_linear" x1="844" y1="404" x2="844" y2="544" gradientUnits="userSpaceOnUse">
<stop stop-color="white"/>
<stop offset="0.9999" stop-color="white" stop-opacity="0.984375"/>
<stop offset="1" stop-color="white" stop-opacity="0"/>
</linearGradient>
<linearGradient id="paint15_linear" x1="844" y1="589" x2="844" y2="449" gradientUnits="userSpaceOnUse">
<stop stop-color="white"/>
<stop offset="0.9999" stop-color="white" stop-opacity="0.984375"/>
<stop offset="1" stop-color="white" stop-opacity="0"/>
</linearGradient>
<linearGradient id="paint16_linear" x1="613" y1="251" x2="613" y2="391" gradientUnits="userSpaceOnUse">
<stop stop-color="white"/>
<stop offset="0.9999" stop-color="white" stop-opacity="0.984375"/>
<stop offset="1" stop-color="white" stop-opacity="0"/>
</linearGradient>
</defs>
</svg>
